<svg class="svg-icon" style="width: 1em; height: 1em;vertical-align: middle;fill: currentColor;overflow: hidden;" viewBox="0 0 1024 1024" version="1.1" xmlns="http://www.w3.org/2000/svg"><path d="M221.866667 588.8c8.533333 0 17.066667-4.266667 21.333333-8.533333 21.333333-12.8 25.6-38.4 12.8-59.733334-68.266667-102.4-110.933333-221.866667-123.733333-345.6 0-12.8 4.266667-21.333333 8.533333-29.866666 8.533333-8.533333 21.333333-17.066667 34.133333-17.066667h128c21.333333 0 38.4 17.066667 42.666667 38.4 4.266667 42.666667 17.066667 89.6 34.133333 128 4.266667 17.066667 0 34.133333-8.533333 46.933333l-55.466667 51.2c-17.066667 17.066667-17.066667 42.666667 0 59.733334s42.666667 17.066667 59.733334 0l55.466666-55.466667c34.133333-34.133333 46.933333-89.6 29.866667-136.533333-12.8-34.133333-21.333333-72.533333-25.6-110.933334-12.8-59.733333-68.266667-106.666667-132.266667-106.666666H162.133333c-34.133333 4.266667-64 21.333333-85.333333 46.933333S46.933333 149.333333 46.933333 183.466667c12.8 136.533333 64 273.066667 136.533334 388.266666 8.533333 8.533333 25.6 17.066667 38.4 17.066667zM1011.2 12.8c-17.066667-17.066667-42.666667-17.066667-59.733333 0L426.666667 537.6 12.8 951.466667c-17.066667 17.066667-17.066667 42.666667 0 59.733333C21.333333 1019.733333 29.866667 1024 42.666667 1024s21.333333-4.266667 29.866666-12.8L337.066667 746.666667c38.4 34.133333 76.8 64 119.466666 89.6 115.2 76.8 251.733333 123.733333 388.266667 136.533333h12.8c34.133333 0 68.266667-12.8 89.6-38.4s38.4-55.466667 38.4-89.6v-128c0-64-46.933333-119.466667-110.933333-128-38.4-4.266667-76.8-12.8-110.933334-25.6-46.933333-17.066667-98.133333-4.266667-136.533333 29.866667L597.333333 622.933333c-25.6-17.066667-51.2-38.4-76.8-59.733333l490.666667-490.666667c17.066667-17.066667 17.066667-42.666667 0-59.733333z m-430.933333 704c17.066667 8.533333 38.4 8.533333 51.2-8.533333l55.466666-55.466667c12.8-12.8 29.866667-17.066667 46.933334-8.533333 42.666667 17.066667 85.333333 25.6 128 34.133333 21.333333 4.266667 38.4 21.333333 38.4 42.666667v128c0 12.8-4.266667 21.333333-12.8 29.866666s-17.066667 12.8-34.133334 12.8c-123.733333-12.8-243.2-55.466667-349.866666-123.733333-38.4-21.333333-72.533333-51.2-102.4-81.066667l59.733333-59.733333c34.133333 34.133333 76.8 64 119.466667 89.6z"  /></svg>