<svg xmlns="http://www.w3.org/2000/svg" viewBox="0 0 128 128" id="speak">
  <path d="M104.343 60.321c-7.83-.225-23.893-3.188-25.963 19.841-.343 1.114-3.503 5.203-6.294 8.391-1.186 1.219-1.632 3.058-1.164 4.82 1.034 3.896 4.465 3.471 6.259 3.595.003.224.005.46.005.705v7.755c-.024 3.132 2.578 7.042 10.146 6.602l1.82 10.367a1.935 1.935 0 0 0 1.906 1.601h24.626a1.937 1.937 0 0 0 1.935-1.984c-.112-4.515-.079-17.177 1.403-21.485 1.985-5.782 4.979-5.312 4.979-19.455-.001-12.479-10.102-20.478-19.658-20.753zm13.159 34.4c-.676 1.179-1.442 2.515-2.142 4.551-1.619 4.709-1.702 16.072-1.658 20.727h-21.04l-1.456-8.271c1.015-.097 2.097-.212 3.22-.347 4.975-.601 5.83-2.717 6.429-5.421.278-1.255 1.204-3.316-.853-3.979-2.214-.708-2.626 1.788-2.926 3.141-.403 1.816-.465 2.095-3.114 2.415-4.077.492-7.619.715-9.177.715-1.75-.007-3.742-1.353-3.731-2.807v-7.77a62.59 62.59 0 0 0-.055-2.605 1.935 1.935 0 0 0-1.799-1.841l-4.176-.29c-.412-.232-.648-1.123-.068-1.789 3.223-3.675 7.101-8.497 7.271-10.581 1.278-14.489 7.52-18.428 23.192-16.316 8.012 1.079 14.707 8.977 14.707 16.824.003 9.064-1.214 11.186-2.624 13.644zM4 81.074c0 14.144 2.994 13.674 4.979 19.455 1.482 4.309 1.515 16.97 1.403 21.485a1.936 1.936 0 0 0 1.935 1.984h24.626c.94 0 1.744-.675 1.906-1.601l1.82-10.367c7.567.439 10.17-3.471 10.146-6.602v-7.755c0-.245.002-.482.005-.705 1.793-.125 5.225.3 6.259-3.595.467-1.762.021-3.601-1.164-4.82-2.791-3.188-5.951-7.277-6.294-8.391-2.07-23.029-18.133-20.067-25.963-19.842C14.101 60.596 4 68.595 4 81.074zm3.871 0c0-7.846 6.74-15.446 14.707-16.824C37.5 61.67 44.492 66.078 45.77 80.566c.17 2.084 4.048 6.906 7.271 10.581.58.666.345 1.556-.068 1.789l-4.176.29c-.98.068-1.754.86-1.799 1.841 0 0-.055 1.18-.055 2.605v7.77c.011 1.453-1.98 2.8-3.731 2.807-1.558 0-5.1-.224-9.177-.715-2.649-.32-2.711-.598-3.114-2.415-.3-1.353-.712-3.849-2.926-3.141-2.057.663-1.132 2.724-.853 3.979.6 2.705 1.454 4.821 6.429 5.421 1.124.135 2.205.251 3.22.347l-1.456 8.271h-21.04c.044-4.655-.038-16.018-1.658-20.727-.699-2.035-1.465-3.372-2.142-4.551-1.407-2.455-2.624-4.578-2.624-13.644zM39 46v11c0 1.718 2.405 2.49 3.623 1.278l12.035-11.301 19.627.004 11.039 11.241C86.513 59.506 89 58.764 89 57V46c7.864-1.591 16.613-9.347 16.613-20.85C105.613 13.47 97.988 4 86.248 4H43.646c-13.875 0-21.259 9.666-21.259 21.15C22.387 35.222 29.234 43.97 39 46zm3.253-38.03L87 7.974c8.5 0 14.742 8.582 14.742 17.177 0 11.067-9.99 16.943-15.139 17.315C85.59 42.538 85 42.985 85 44v8l-8.453-8.297c-.366-.395-.964-.724-1.502-.724L54 43c-.511 0-1.163.287-1.526.647L43 52v-8c0-.976-.533-1.557-1.501-1.679-8.689-1.09-15.241-8.472-15.241-17.171 0-7.885 5.358-17.18 15.995-17.18z"></path>
</svg>
